# xmcd
#
# Track frame offsets:
# 150
# 12057
# 28755
# 43192
# 67047
# 81302
# 93385
# 104750
# 115840
# 126462
# 138972
# 154832
# 168030
#
# Disc length: 2478 seconds
#
#
# Revision: 0
# Processed by: cddbd v1.5.1PL2 Copyright (c) Steve Scherf et al.
# Submitted via: FreeRIP 2.945 
#
DISCID=af09ac0d
DTITLE=The Cumberland Boys - Country Gospel Greats
DYEAR=1900
DGENRE=Gospel
TTITLE0=I Shall Not Be Moved
TTITLE1=I Hold A Clear Title
TTITLE2=That's Pretty Amazing
TTITLE3=Just A Closer Walk With Thee
TTITLE4=The Old Landmark
TTITLE5=Rock Of Ages
TTITLE6=I Joined The Party Of The Lord
TTITLE7=The Sun Didn't Shine
TTITLE8=In The Garden
TTITLE9=The Old Gospelship
TTITLE10=When I Step Inside The Gate
TTITLE11=Just A Little Talk To Jesus
TTITLE12=Will The Circle Be Unbroken
EXTD=
EXTT0=
EXTT1=
EXTT2=
EXTT3=
EXTT4=
EXTT5=
EXTT6=
EXTT7=
EXTT8=
EXTT9=
EXTT10=
EXTT11=
EXTT12=
PLAYORDER=
